# xmcd
#
# Track frame offsets: 
#        150
#        5636
#        33675
#        54346
#        74011
#        92476
#        111110
#        123189
#        129085
#        158584
#        171383
#
# Disc length: 2454 seconds
#
# Revision: 1
# Processed by: cddbd v1.5.2PL0 Copyright (c) Steve Scherf et al.
# Submitted via: ExactAudioCopy v1.0b1
#
DISCID=8b09940b
DTITLE=Queen - Queen II: 2011 Deluxe Edition - CD1 
DYEAR=1974
DGENRE=Rock
TTITLE0=Procession
TTITLE1=Father To Son
TTITLE2=White Queen (As It Began)
TTITLE3=Some Day One Day
TTITLE4=The Loser In The End
TTITLE5=Ogre Battle
TTITLE6=The Fairy Feller's Master-Stroke
TTITLE7=Nevermore
TTITLE8=The March Of The Black Queen
TTITLE9=Funny How Love Is
TTITLE10=Seven Seas Of Rhye
EXTD=
EXTT0=
EXTT1=
EXTT2=
EXTT3=
EXTT4=
EXTT5=
EXTT6=
EXTT7=
EXTT8=
EXTT9=
EXTT10=
PLAYORDER=
